# xmcd CD database file
#
# Track frame offsets:
#	150
#	13200
#	44735
#	60700
#	77450
#	93600
#	114150
#	135325
#	154275
#	175125
#	190125
#	219000
#
# Disc length: 3251 seconds
#
# Revision: 0
# Processed by: cddbd v1.5.1PL0 Copyright (c) Steve Scherf et al.
# Submitted via: ACXtractor (MTCDDB.DLL V2003.07.15)
#
DISCID=980cb10c
DTITLE=Backbone Slip - Avenue Breakdown
DYEAR=1994
DGENRE=Blues
TTITLE0=Mama, Talk To Your Daughter
TTITLE1=A Fool For You
TTITLE2=I Can't Always Be (What You Expect of Me)
TTITLE3=Big Legged Woman
TTITLE4=Walk On
TTITLE5=Bright Lights, Big City
TTITLE6=Brigitte's Blues
TTITLE7=Avenue Breakdown
TTITLE8=That's My Mistake
TTITLE9=Ramblin'
TTITLE10=Dangerzone
TTITLE11=Trouble Everyday
EXTD=ID3G:   0 YEAR: 1994
EXTT0=
EXTT1=
EXTT2=
EXTT3=
EXTT4=
EXTT5=
EXTT6=
EXTT7=
EXTT8=
EXTT9=
EXTT10=
EXTT11=
PLAYORDER=
